<mxfile host="app.diagrams.net" modified="2022-11-30T09:48:49.660Z" agent="5.0 (Windows NT 10.0; Win64; x64) AppleWebKit/537.36 (KHTML, like Gecko) Chrome/107.0.0.0 Safari/537.36" etag="UIaFYNIvsEJ2Ua0OLzew" version="20.6.0" type="github">
  <diagram id="Juxt1GDownKfmOn9Un50" name="Page-1">
    <mxGraphModel dx="868" dy="450" grid="1" gridSize="10" guides="1" tooltips="1" connect="1" arrows="1" fold="1" page="1" pageScale="1" pageWidth="850" pageHeight="1100" math="0" shadow="0">
      <root>
        <mxCell id="0" />
        <mxCell id="1" parent="0" />
        <mxCell id="tdOqcuPv-V5w8VtgRjol-1" value="Computer(abstract)" style="swimlane;fontStyle=1;align=center;verticalAlign=top;childLayout=stackLayout;horizontal=1;startSize=26;horizontalStack=0;resizeParent=1;resizeParentMax=0;resizeLast=0;collapsible=1;marginBottom=0;" parent="1" vertex="1">
          <mxGeometry x="331" y="30" width="160" height="268" as="geometry" />
        </mxCell>
        <mxCell id="tdOqcuPv-V5w8VtgRjol-2" value="-deviceName : String&#xa;-price : int&#xa;-RAM: String&#xa;+hasHDMI: boolean" style="text;strokeColor=#36393d;fillColor=#ffcccc;align=left;verticalAlign=top;spacingLeft=4;spacingRight=4;overflow=hidden;rotatable=0;points=[[0,0.5],[1,0.5]];portConstraint=eastwest;" parent="tdOqcuPv-V5w8VtgRjol-1" vertex="1">
          <mxGeometry y="26" width="160" height="64" as="geometry" />
        </mxCell>
        <mxCell id="tdOqcuPv-V5w8VtgRjol-4" value="+Computer()&#xa;+ setName(String)&#xa;+ getName()&#xa;+ setPrice(int)&#xa;+ getPrice()&#xa;+ setMemory(String)&#xa;+ getMemory&#xa;+ hasHDMI()&#xa;+ deviceDetails()&#xa;&#xa;+ abstract inputDevices()&#xa;" style="text;align=left;verticalAlign=top;spacingLeft=4;spacingRight=4;overflow=hidden;rotatable=0;points=[[0,0.5],[1,0.5]];portConstraint=eastwest;fillColor=#ffff88;strokeColor=#36393d;" parent="tdOqcuPv-V5w8VtgRjol-1" vertex="1">
          <mxGeometry y="90" width="160" height="170" as="geometry" />
        </mxCell>
        <mxCell id="tdOqcuPv-V5w8VtgRjol-3" value="" style="line;strokeWidth=1;fillColor=none;align=left;verticalAlign=middle;spacingTop=-1;spacingLeft=3;spacingRight=3;rotatable=0;labelPosition=right;points=[];portConstraint=eastwest;strokeColor=inherit;" parent="tdOqcuPv-V5w8VtgRjol-1" vertex="1">
          <mxGeometry y="260" width="160" height="8" as="geometry" />
        </mxCell>
        <mxCell id="tdOqcuPv-V5w8VtgRjol-5" value="DesktopComputer" style="swimlane;fontStyle=1;align=center;verticalAlign=top;childLayout=stackLayout;horizontal=1;startSize=26;horizontalStack=0;resizeParent=1;resizeParentMax=0;resizeLast=0;collapsible=1;marginBottom=0;" parent="1" vertex="1">
          <mxGeometry x="680" y="510" width="160" height="230" as="geometry" />
        </mxCell>
        <mxCell id="tdOqcuPv-V5w8VtgRjol-6" value="- type: String&#xa;" style="text;strokeColor=#36393d;fillColor=#ffcccc;align=left;verticalAlign=top;spacingLeft=4;spacingRight=4;overflow=hidden;rotatable=0;points=[[0,0.5],[1,0.5]];portConstraint=eastwest;" parent="tdOqcuPv-V5w8VtgRjol-5" vertex="1">
          <mxGeometry y="26" width="160" height="64" as="geometry" />
        </mxCell>
        <mxCell id="tdOqcuPv-V5w8VtgRjol-7" value="" style="line;strokeWidth=1;fillColor=none;align=left;verticalAlign=middle;spacingTop=-1;spacingLeft=3;spacingRight=3;rotatable=0;labelPosition=right;points=[];portConstraint=eastwest;strokeColor=inherit;" parent="tdOqcuPv-V5w8VtgRjol-5" vertex="1">
          <mxGeometry y="90" width="160" height="8" as="geometry" />
        </mxCell>
        <mxCell id="tdOqcuPv-V5w8VtgRjol-8" value="+ DesktopComputer()&#xa;+DesktopComputer(String)&#xa;&#xa;+ Maintainence()&#xa;+setType(String)&#xa;+ getType()&#xa;&#xa;+inputDevices()&#xa;" style="text;strokeColor=#36393d;fillColor=#ffff88;align=left;verticalAlign=top;spacingLeft=4;spacingRight=4;overflow=hidden;rotatable=0;points=[[0,0.5],[1,0.5]];portConstraint=eastwest;" parent="tdOqcuPv-V5w8VtgRjol-5" vertex="1">
          <mxGeometry y="98" width="160" height="132" as="geometry" />
        </mxCell>
        <mxCell id="tdOqcuPv-V5w8VtgRjol-9" value="Laptop" style="swimlane;fontStyle=1;align=center;verticalAlign=top;childLayout=stackLayout;horizontal=1;startSize=26;horizontalStack=0;resizeParent=1;resizeParentMax=0;resizeLast=0;collapsible=1;marginBottom=0;" parent="1" vertex="1">
          <mxGeometry x="10" y="510" width="160" height="230" as="geometry" />
        </mxCell>
        <mxCell id="tdOqcuPv-V5w8VtgRjol-10" value="-color : String&#xa;- weightInGrams : int" style="text;strokeColor=#36393d;fillColor=#ffcccc;align=left;verticalAlign=top;spacingLeft=4;spacingRight=4;overflow=hidden;rotatable=0;points=[[0,0.5],[1,0.5]];portConstraint=eastwest;" parent="tdOqcuPv-V5w8VtgRjol-9" vertex="1">
          <mxGeometry y="26" width="160" height="54" as="geometry" />
        </mxCell>
        <mxCell id="tdOqcuPv-V5w8VtgRjol-12" value="+ Laptop()&#xa;+ Laptop(String, int)&#xa;&#xa;+ performance()&#xa;+ setColor()&#xa;+ getColor()&#xa;+ getWeightInGrams&#xa;&#xa;+ inputDevices()" style="text;strokeColor=#36393d;fillColor=#ffff88;align=left;verticalAlign=top;spacingLeft=4;spacingRight=4;overflow=hidden;rotatable=0;points=[[0,0.5],[1,0.5]];portConstraint=eastwest;" parent="tdOqcuPv-V5w8VtgRjol-9" vertex="1">
          <mxGeometry y="80" width="160" height="142" as="geometry" />
        </mxCell>
        <mxCell id="tdOqcuPv-V5w8VtgRjol-11" value="" style="line;strokeWidth=1;fillColor=none;align=left;verticalAlign=middle;spacingTop=-1;spacingLeft=3;spacingRight=3;rotatable=0;labelPosition=right;points=[];portConstraint=eastwest;strokeColor=inherit;" parent="tdOqcuPv-V5w8VtgRjol-9" vertex="1">
          <mxGeometry y="222" width="160" height="8" as="geometry" />
        </mxCell>
        <mxCell id="tdOqcuPv-V5w8VtgRjol-13" value="SmartPhone" style="swimlane;fontStyle=1;align=center;verticalAlign=top;childLayout=stackLayout;horizontal=1;startSize=26;horizontalStack=0;resizeParent=1;resizeParentMax=0;resizeLast=0;collapsible=1;marginBottom=0;" parent="1" vertex="1">
          <mxGeometry x="260" y="510" width="160" height="220" as="geometry" />
        </mxCell>
        <mxCell id="tdOqcuPv-V5w8VtgRjol-14" value="- cameraPixels : String" style="text;strokeColor=#36393d;fillColor=#ffcccc;align=left;verticalAlign=top;spacingLeft=4;spacingRight=4;overflow=hidden;rotatable=0;points=[[0,0.5],[1,0.5]];portConstraint=eastwest;" parent="tdOqcuPv-V5w8VtgRjol-13" vertex="1">
          <mxGeometry y="26" width="160" height="54" as="geometry" />
        </mxCell>
        <mxCell id="tdOqcuPv-V5w8VtgRjol-15" value="" style="line;strokeWidth=1;fillColor=none;align=left;verticalAlign=middle;spacingTop=-1;spacingLeft=3;spacingRight=3;rotatable=0;labelPosition=right;points=[];portConstraint=eastwest;strokeColor=inherit;" parent="tdOqcuPv-V5w8VtgRjol-13" vertex="1">
          <mxGeometry y="80" width="160" height="8" as="geometry" />
        </mxCell>
        <mxCell id="tdOqcuPv-V5w8VtgRjol-16" value="+ SmarttPhone()&#xa;&#xa;+ usability()&#xa;+setCameraPixels(String)&#xa;+ getCameraPixels()&#xa;&#xa;+ inputDevices()" style="text;strokeColor=#36393d;fillColor=#ffff88;align=left;verticalAlign=top;spacingLeft=4;spacingRight=4;overflow=hidden;rotatable=0;points=[[0,0.5],[1,0.5]];portConstraint=eastwest;" parent="tdOqcuPv-V5w8VtgRjol-13" vertex="1">
          <mxGeometry y="88" width="160" height="132" as="geometry" />
        </mxCell>
        <mxCell id="tdOqcuPv-V5w8VtgRjol-17" value="Tablet" style="swimlane;fontStyle=1;align=center;verticalAlign=top;childLayout=stackLayout;horizontal=1;startSize=26;horizontalStack=0;resizeParent=1;resizeParentMax=0;resizeLast=0;collapsible=1;marginBottom=0;" parent="1" vertex="1">
          <mxGeometry x="480" y="513" width="160" height="220" as="geometry" />
        </mxCell>
        <mxCell id="tdOqcuPv-V5w8VtgRjol-18" value="- screenSize: String" style="text;strokeColor=#36393d;fillColor=#ffcccc;align=left;verticalAlign=top;spacingLeft=4;spacingRight=4;overflow=hidden;rotatable=0;points=[[0,0.5],[1,0.5]];portConstraint=eastwest;" parent="tdOqcuPv-V5w8VtgRjol-17" vertex="1">
          <mxGeometry y="26" width="160" height="54" as="geometry" />
        </mxCell>
        <mxCell id="tdOqcuPv-V5w8VtgRjol-19" value="" style="line;strokeWidth=1;fillColor=none;align=left;verticalAlign=middle;spacingTop=-1;spacingLeft=3;spacingRight=3;rotatable=0;labelPosition=right;points=[];portConstraint=eastwest;strokeColor=inherit;" parent="tdOqcuPv-V5w8VtgRjol-17" vertex="1">
          <mxGeometry y="80" width="160" height="8" as="geometry" />
        </mxCell>
        <mxCell id="tdOqcuPv-V5w8VtgRjol-20" value="+ Tablet()&#xa;&#xa;+ setScreenSize(String)&#xa;+ getScreenSize()&#xa;+ advantages()&#xa;&#xa;+ inputDevices()" style="text;strokeColor=#36393d;fillColor=#ffff88;align=left;verticalAlign=top;spacingLeft=4;spacingRight=4;overflow=hidden;rotatable=0;points=[[0,0.5],[1,0.5]];portConstraint=eastwest;" parent="tdOqcuPv-V5w8VtgRjol-17" vertex="1">
          <mxGeometry y="88" width="160" height="132" as="geometry" />
        </mxCell>
        <mxCell id="tdOqcuPv-V5w8VtgRjol-23" value="Child class" style="rounded=0;whiteSpace=wrap;html=1;" parent="1" vertex="1">
          <mxGeometry x="80" y="490" width="90" height="20" as="geometry" />
        </mxCell>
        <mxCell id="tdOqcuPv-V5w8VtgRjol-24" value="Child class" style="rounded=0;whiteSpace=wrap;html=1;" parent="1" vertex="1">
          <mxGeometry x="320" y="480" width="90" height="20" as="geometry" />
        </mxCell>
        <mxCell id="tdOqcuPv-V5w8VtgRjol-25" value="Child class" style="rounded=0;whiteSpace=wrap;html=1;" parent="1" vertex="1">
          <mxGeometry x="560" y="490" width="90" height="20" as="geometry" />
        </mxCell>
        <mxCell id="tdOqcuPv-V5w8VtgRjol-26" value="Child class" style="rounded=0;whiteSpace=wrap;html=1;" parent="1" vertex="1">
          <mxGeometry x="750" y="480" width="90" height="20" as="geometry" />
        </mxCell>
        <mxCell id="tdOqcuPv-V5w8VtgRjol-27" value="Parent Class" style="rounded=0;whiteSpace=wrap;html=1;" parent="1" vertex="1">
          <mxGeometry x="370" width="80" height="20" as="geometry" />
        </mxCell>
        <mxCell id="tdOqcuPv-V5w8VtgRjol-28" value="" style="endArrow=none;html=1;rounded=0;" parent="1" edge="1">
          <mxGeometry width="50" height="50" relative="1" as="geometry">
            <mxPoint x="70" y="360" as="sourcePoint" />
            <mxPoint x="740" y="360" as="targetPoint" />
            <Array as="points">
              <mxPoint x="400" y="360" />
            </Array>
          </mxGeometry>
        </mxCell>
        <mxCell id="tdOqcuPv-V5w8VtgRjol-29" value="" style="endArrow=none;html=1;rounded=0;exitX=0.375;exitY=0;exitDx=0;exitDy=0;exitPerimeter=0;" parent="1" source="tdOqcuPv-V5w8VtgRjol-9" edge="1">
          <mxGeometry width="50" height="50" relative="1" as="geometry">
            <mxPoint x="70" y="300" as="sourcePoint" />
            <mxPoint x="70" y="360" as="targetPoint" />
          </mxGeometry>
        </mxCell>
        <mxCell id="tdOqcuPv-V5w8VtgRjol-30" value="" style="endArrow=none;html=1;rounded=0;" parent="1" edge="1">
          <mxGeometry width="50" height="50" relative="1" as="geometry">
            <mxPoint x="560" y="510" as="sourcePoint" />
            <mxPoint x="560" y="360" as="targetPoint" />
          </mxGeometry>
        </mxCell>
        <mxCell id="tdOqcuPv-V5w8VtgRjol-31" value="" style="endArrow=none;html=1;rounded=0;exitX=0.325;exitY=-0.027;exitDx=0;exitDy=0;exitPerimeter=0;" parent="1" source="tdOqcuPv-V5w8VtgRjol-13" edge="1">
          <mxGeometry width="50" height="50" relative="1" as="geometry">
            <mxPoint x="310" y="310" as="sourcePoint" />
            <mxPoint x="312" y="360" as="targetPoint" />
          </mxGeometry>
        </mxCell>
        <mxCell id="tdOqcuPv-V5w8VtgRjol-32" value="" style="endArrow=none;html=1;rounded=0;exitX=0.363;exitY=-0.03;exitDx=0;exitDy=0;exitPerimeter=0;" parent="1" source="tdOqcuPv-V5w8VtgRjol-5" edge="1">
          <mxGeometry width="50" height="50" relative="1" as="geometry">
            <mxPoint x="740" y="310" as="sourcePoint" />
            <mxPoint x="740" y="360" as="targetPoint" />
          </mxGeometry>
        </mxCell>
        <mxCell id="tdOqcuPv-V5w8VtgRjol-34" value="Extends" style="endArrow=block;endSize=16;endFill=0;html=1;rounded=0;entryX=0.45;entryY=0.625;entryDx=0;entryDy=0;entryPerimeter=0;" parent="1" target="tdOqcuPv-V5w8VtgRjol-3" edge="1">
          <mxGeometry x="-0.2353" y="19" width="160" relative="1" as="geometry">
            <mxPoint x="405" y="360" as="sourcePoint" />
            <mxPoint x="405" y="310" as="targetPoint" />
            <mxPoint as="offset" />
          </mxGeometry>
        </mxCell>
        <mxCell id="hOl1YvcaIpcVuIxt1p91-1" value="" style="endArrow=none;html=1;rounded=0;exitX=1;exitY=0.347;exitDx=0;exitDy=0;exitPerimeter=0;" edge="1" parent="1" source="tdOqcuPv-V5w8VtgRjol-4">
          <mxGeometry width="50" height="50" relative="1" as="geometry">
            <mxPoint x="500" y="180" as="sourcePoint" />
            <mxPoint x="580" y="180" as="targetPoint" />
          </mxGeometry>
        </mxCell>
        <mxCell id="hOl1YvcaIpcVuIxt1p91-2" value="Program" style="swimlane;fontStyle=1;align=center;verticalAlign=top;childLayout=stackLayout;horizontal=1;startSize=26;horizontalStack=0;resizeParent=1;resizeParentMax=0;resizeLast=0;collapsible=1;marginBottom=0;" vertex="1" parent="1">
          <mxGeometry x="580" y="150" width="160" height="60" as="geometry" />
        </mxCell>
        <mxCell id="hOl1YvcaIpcVuIxt1p91-4" value="" style="line;strokeWidth=1;fillColor=none;align=left;verticalAlign=middle;spacingTop=-1;spacingLeft=3;spacingRight=3;rotatable=0;labelPosition=right;points=[];portConstraint=eastwest;strokeColor=inherit;" vertex="1" parent="hOl1YvcaIpcVuIxt1p91-2">
          <mxGeometry y="26" width="160" height="8" as="geometry" />
        </mxCell>
        <mxCell id="hOl1YvcaIpcVuIxt1p91-5" value="+ main()" style="text;strokeColor=none;fillColor=none;align=left;verticalAlign=top;spacingLeft=4;spacingRight=4;overflow=hidden;rotatable=0;points=[[0,0.5],[1,0.5]];portConstraint=eastwest;" vertex="1" parent="hOl1YvcaIpcVuIxt1p91-2">
          <mxGeometry y="34" width="160" height="26" as="geometry" />
        </mxCell>
      </root>
    </mxGraphModel>
  </diagram>
</mxfile>
